<svg xmlns="http://www.w3.org/2000/svg" viewBox="0 0 32 32" fill="none">
  <defs>
    <linearGradient id="g1" x1="0%" y1="0%" x2="100%" y2="100%">
      <stop offset="0%" stop-color="#667eea"/>
      <stop offset="100%" stop-color="#764ba2"/>
    </linearGradient>
    <linearGradient id="g2" x1="0%" y1="0%" x2="100%" y2="100%">
      <stop offset="0%" stop-color="#f97316"/>
      <stop offset="100%" stop-color="#ec4899"/>
    </linearGradient>
  </defs>
  
  <!-- Background -->
  <rect width="32" height="32" rx="8" fill="url(#g1)"/>
  
  <!-- D letter -->
  <path 
    d="M8 7 L8 25 L14 25 C20 25 24 21 24 16 C24 11 20 7 14 7 L8 7 Z
       M11 10 L14 10 C18 10 21 12.5 21 16 C21 19.5 18 22 14 22 L11 22 L11 10 Z" 
    fill="white"
  />
  
  <!-- Lightning bolt -->
  <path 
    d="M15 11 L13 15.5 L15.5 15.5 L14 21 L18 14.5 L15.5 14.5 L17 11 Z" 
    fill="url(#g2)"
  />
</svg>
